<svg width="20" height="20" viewBox="0 0 20 20" fill="none" xmlns="http://www.w3.org/2000/svg">
<path d="M8.83335 11.5L7.02085 9.68749C6.86808 9.53471 6.67696 9.46166 6.44752 9.46832C6.21808 9.47499 6.02724 9.55499 5.87502 9.70832C5.72224 9.8611 5.64585 10.0555 5.64585 10.2917C5.64585 10.5278 5.72224 10.7222 5.87502 10.875L8.25002 13.25C8.4028 13.4028 8.59724 13.4792 8.83335 13.4792C9.06947 13.4792 9.26391 13.4028 9.41669 13.25L14.1459 8.52082C14.2986 8.36805 14.3717 8.17693 14.365 7.94749C14.3584 7.71804 14.2784 7.52721 14.125 7.37499C13.9722 7.22221 13.7778 7.14582 13.5417 7.14582C13.3056 7.14582 13.1111 7.22221 12.9584 7.37499L8.83335 11.5ZM10 18.3333C8.84724 18.3333 7.76391 18.1144 6.75002 17.6767C5.73613 17.2389 4.85419 16.6453 4.10419 15.8958C3.35419 15.1458 2.76058 14.2639 2.32335 13.25C1.88613 12.2361 1.66724 11.1528 1.66669 9.99999C1.66669 8.84721 1.88558 7.76388 2.32335 6.74999C2.76113 5.7361 3.35474 4.85416 4.10419 4.10416C4.85419 3.35416 5.73613 2.76055 6.75002 2.32332C7.76391 1.8861 8.84724 1.66721 10 1.66666C11.1528 1.66666 12.2361 1.88555 13.25 2.32332C14.2639 2.7611 15.1459 3.35471 15.8959 4.10416C16.6459 4.85416 17.2397 5.7361 17.6775 6.74999C18.1153 7.76388 18.3339 8.84721 18.3334 9.99999C18.3334 11.1528 18.1145 12.2361 17.6767 13.25C17.2389 14.2639 16.6453 15.1458 15.8959 15.8958C15.1459 16.6458 14.2639 17.2397 13.25 17.6775C12.2361 18.1153 11.1528 18.3339 10 18.3333ZM10 16.6667C11.8472 16.6667 13.4203 16.0175 14.7192 14.7192C16.0181 13.4208 16.6672 11.8478 16.6667 9.99999C16.6667 8.15277 16.0175 6.57971 14.7192 5.28082C13.4209 3.98193 11.8478 3.33277 10 3.33332C8.1528 3.33332 6.57974 3.98249 5.28085 5.28082C3.98196 6.57916 3.3328 8.15221 3.33335 9.99999C3.33335 11.8472 3.98252 13.4203 5.28085 14.7192C6.57919 16.018 8.15224 16.6672 10 16.6667Z" fill="#FAFF00"/>
</svg>
